<?xml version="1.0" encoding="UTF-8"?>
<svg version="1.1" xmlns="http://www.w3.org/2000/svg" width="512" height="512">
<path d="M0 0 C0.90054108 -0.00701431 1.80108215 -0.01402863 2.72891235 -0.02125549 C5.61750351 -0.03865402 8.50588962 -0.0451074 11.39453125 -0.046875 C12.38190277 -0.04754974 13.36927429 -0.04822449 14.38656616 -0.04891968 C28.87791389 -0.03317157 42.94723376 0.41971425 57.20703125 3.203125 C58.5525708 3.44458252 58.5525708 3.44458252 59.92529297 3.69091797 C109.46556968 12.65518497 153.92796357 36.65010988 190.20703125 71.203125 C191.10542725 72.05849854 191.10542725 72.05849854 192.02197266 72.93115234 C200.36936508 80.93818658 208.01620673 89.16119067 214.90527344 98.45703125 C216.20622753 100.20204695 217.53542624 101.92208563 218.87109375 103.640625 C249.0421975 142.96010463 268.14898101 194.21603264 268.41015625 243.99609375 C268.41717056 244.89663483 268.42418488 245.7971759 268.43141174 246.7250061 C268.44881027 249.61359726 268.45526365 252.50198337 268.45703125 255.390625 C268.45804337 256.87168228 268.45804337 256.87168228 268.45907593 258.38265991 C268.44332782 272.87400764 267.990442 286.94332751 265.20703125 301.203125 C265.04605957 302.10015137 264.88508789 302.99717773 264.71923828 303.92138672 C255.75497128 353.46166343 231.76004637 397.92405732 197.20703125 434.203125 C196.35165771 435.101521 196.35165771 435.101521 195.47900391 436.01806641 C187.47196967 444.36545883 179.24896558 452.01230048 169.953125 458.90136719 C168.2081093 460.20232128 166.48807062 461.53151999 164.76953125 462.8671875 C125.45005162 493.03829125 74.19412361 512.14507476 24.4140625 512.40625 C23.51352142 512.41326431 22.61298035 512.42027863 21.68515015 512.42750549 C18.79655899 512.44490402 15.90817288 512.4513574 13.01953125 512.453125 C12.03215973 512.45379974 11.04478821 512.45447449 10.02749634 512.45516968 C-4.46385139 512.43942157 -18.53317126 511.98653575 -32.79296875 509.203125 C-33.68999512 509.04215332 -34.58702148 508.88118164 -35.51123047 508.71533203 C-85.05150718 499.75106503 -129.51390107 475.75614012 -165.79296875 441.203125 C-166.39189941 440.63287598 -166.99083008 440.06262695 -167.60791016 439.47509766 C-175.95530258 431.46806342 -183.60214423 423.24505933 -190.49121094 413.94921875 C-191.79216503 412.20420305 -193.12136374 410.48416437 -194.45703125 408.765625 C-224.628135 369.44614537 -243.73491851 318.19021736 -243.99609375 268.41015625 C-244.00310806 267.50961517 -244.01012238 266.6090741 -244.01734924 265.6812439 C-244.03474777 262.79265274 -244.04120115 259.90426663 -244.04296875 257.015625 C-244.04364349 256.02825348 -244.04431824 255.04088196 -244.04501343 254.02359009 C-244.02926532 239.53224236 -243.5763795 225.46292249 -240.79296875 211.203125 C-240.55151123 209.85758545 -240.55151123 209.85758545 -240.30517578 208.48486328 C-231.34090878 158.94458657 -207.34598387 114.48219268 -172.79296875 78.203125 C-172.22271973 77.60419434 -171.6524707 77.00526367 -171.06494141 76.38818359 C-163.05790717 68.04079117 -154.83490308 60.39394952 -145.5390625 53.50488281 C-143.7940468 52.20392872 -142.07400812 50.87473001 -140.35546875 49.5390625 C-101.03598912 19.36795875 -49.78006111 0.26117524 0 0 Z " fill="#5A657A" transform="translate(243.79296875,-0.203125)"/>
<path d="M0 0 C2.5327831 2.22288063 4.94925301 4.51604842 7.3359375 6.89453125 C7.96242187 7.4978125 8.58890625 8.10109375 9.234375 8.72265625 C27.84479953 28.09097137 30.53582021 58.62216615 30.44946289 84.08886719 C30.44960892 85.24154083 30.44975494 86.39421448 30.4499054 87.58181763 C30.44921523 91.34753377 30.44146524 95.11319888 30.43359375 98.87890625 C30.43172638 101.50734429 30.43030398 104.13578268 30.42930603 106.76422119 C30.42621501 112.94745806 30.41803208 119.13067695 30.40795654 125.31390595 C30.39672565 132.36120604 30.39126748 139.40850705 30.38626111 146.45581388 C30.37584727 160.93539688 30.35752996 175.41496048 30.3359375 189.89453125 C18.7859375 189.89453125 7.2359375 189.89453125 -4.6640625 189.89453125 C-4.9940625 180.65453125 -5.3240625 171.41453125 -5.6640625 161.89453125 C-8.3040625 165.52453125 -10.9440625 169.15453125 -13.6640625 172.89453125 C-28.16639093 187.7888145 -46.72327781 193.70171439 -67.22265625 194.1953125 C-69.84892179 194.20970658 -72.4752655 194.21350954 -75.1015625 194.20703125 C-76.40416016 194.22314453 -77.70675781 194.23925781 -79.04882812 194.25585938 C-98.45523664 194.26551911 -115.54621704 189.15131663 -129.91796875 175.80078125 C-139.67405625 165.58188125 -144.6966894 152.46579732 -145.0390625 138.45703125 C-144.6043677 121.26050508 -137.54259563 107.04106866 -125.18505859 95.25830078 C-112.69034241 84.05517324 -97.65426542 77.56516466 -81.62988281 73.40771484 C-79.79727351 72.92930641 -77.97609486 72.4076898 -76.15625 71.8828125 C-63.23916138 68.74268601 -50.06019921 68.5627624 -36.8515625 68.64453125 C-36.02243347 68.64630371 -35.19330444 68.64807617 -34.33905029 68.64990234 C-22.35496512 68.67998186 -10.52773786 69.05418272 1.3359375 70.89453125 C-0.14048598 52.8909793 -3.87241188 35.21520258 -17.74609375 22.3828125 C-32.24880314 11.12918261 -54.2280641 9.08299574 -71.94824219 11.16259766 C-86.40129784 13.45472649 -99.80239769 19.56574506 -110.6484375 29.42578125 C-112.6640625 30.89453125 -112.6640625 30.89453125 -116.6640625 30.89453125 C-118.32739258 29.39746094 -118.32739258 29.39746094 -119.93359375 27.31640625 C-120.51173828 26.56746094 -121.08988281 25.81851563 -121.68554688 25.046875 C-122.27658203 24.25410156 -122.86761719 23.46132812 -123.4765625 22.64453125 C-124.08693359 21.86722656 -124.69730469 21.08992188 -125.32617188 20.2890625 C-125.89787109 19.53496094 -126.46957031 18.78085938 -127.05859375 18.00390625 C-127.58300049 17.31264648 -128.10740723 16.62138672 -128.64770508 15.90917969 C-129.6640625 13.89453125 -129.6640625 13.89453125 -129.48925781 11.79492188 C-128.09175196 8.57652379 -125.31509236 6.73200265 -122.6015625 4.64453125 C-121.97958984 4.16363037 -121.35761719 3.68272949 -120.71679688 3.18725586 C-109.82885311 -4.95838863 -97.90018422 -10.07127473 -84.6640625 -13.10546875 C-82.87162109 -13.55212891 -82.87162109 -13.55212891 -81.04296875 -14.0078125 C-55.11508518 -19.76661571 -21.47973879 -16.97592259 0 0 Z " fill="#8EBABA" transform="translate(200.6640625,167.10546875)"/>
<path d="M0 0 C2.93777857 2.30172367 5.7418925 4.6043349 8.3125 7.3125 C6.67395155 13.45448035 3.43198888 18.6214851 0.25 24.0625 C-0.84534467 25.9529555 -1.94041087 27.84357239 -3.03515625 29.734375 C-3.51992432 30.56549805 -4.00469238 31.39662109 -4.50415039 32.25292969 C-5.26960555 33.58517225 -6.00036219 34.93822438 -6.6875 36.3125 C-8.5546875 36.1015625 -8.5546875 36.1015625 -10.6875 35.3125 C-11.8203125 33.2734375 -11.8203125 33.2734375 -12.8125 30.6875 C-16.2624701 23.26741046 -22.44682722 19.45790489 -29.875 16.4375 C-46.73798915 11.46153599 -62.88583779 14.29955 -78.0625 22.5 C-92.57213516 31.66191055 -101.61542474 45.76213472 -105.6875 62.3125 C-107.39619639 70.09135522 -107.99034124 77.5330533 -108.00634766 85.48510742 C-108.02141609 87.22852921 -108.02141609 87.22852921 -108.03678894 89.00717163 C-108.06743358 92.8107661 -108.08460387 96.61429079 -108.1015625 100.41796875 C-108.12028923 103.07026663 -108.13976974 105.72254833 -108.1602478 108.37483215 C-108.20681317 114.61826734 -108.24366399 120.86171954 -108.27692068 127.10523826 C-108.31530045 134.22028587 -108.36466839 141.33524442 -108.41490483 148.45021665 C-108.51789336 163.0709138 -108.6058101 177.69166787 -108.6875 192.3125 C-119.2475 192.3125 -129.8075 192.3125 -140.6875 192.3125 C-140.6875 125.9825 -140.6875 59.6525 -140.6875 -8.6875 C-129.7975 -8.6875 -118.9075 -8.6875 -107.6875 -8.6875 C-107.6875 2.5325 -107.6875 13.7525 -107.6875 25.3125 C-104.2225 19.3725 -104.2225 19.3725 -100.6875 13.3125 C-76.66457964 -17.11653245 -31.30583941 -23.61272369 0 0 Z " fill="#8EBBBA" transform="translate(447.6875,164.6875)"/>
<path d="M0 0 C-1.34450218 20.90932694 -6.19336173 42.55865335 -22.375 57.3125 C-37.33907928 70.05143738 -54.1112408 74.15804888 -73.375 74.25 C-74.98375 74.2809375 -74.98375 74.2809375 -76.625 74.3125 C-87.64524021 74.36612647 -98.25226886 71.87608659 -106.75390625 64.47265625 C-113.70395248 57.0697248 -115.56825647 48.76745151 -115.40234375 38.83227539 C-114.9287593 27.50795628 -110.4972779 20.07512208 -102.375 12.375 C-77.96940835 -7.87841159 -29.162166 -7.78445303 0 0 Z " fill="#5A657A" transform="translate(203,263)"/>
</svg>
